<?xml version="1.0" encoding="UTF-8" standalone="no"?>
<!-- Created with Inkscape (http://www.inkscape.org/) -->

<svg
   version="1.1"
   id="svg2"
   width="1122.52"
   height="793.70001"
   viewBox="0 0 1122.52 793.70001"
   sodipodi:docname="get-it-on-google-play-2016-seeklogo.com.ai"
   xmlns:inkscape="http://www.inkscape.org/namespaces/inkscape"
   xmlns:sodipodi="http://sodipodi.sourceforge.net/DTD/sodipodi-0.dtd"
   xmlns="http://www.w3.org/2000/svg"
   xmlns:svg="http://www.w3.org/2000/svg">
  <defs
     id="defs6">
    <clipPath
       clipPathUnits="userSpaceOnUse"
       id="clipPath16">
      <path
         d="M 0,595.275 H 841.89 V 0 H 0 Z"
         id="path14" />
    </clipPath>
    <linearGradient
       x1="0"
       y1="0"
       x2="1"
       y2="0"
       gradientUnits="userSpaceOnUse"
       gradientTransform="matrix(-59.646206,58.952183,-59.646149,-58.95224,258.55566,257.85449)"
       spreadMethod="pad"
       id="linearGradient102">
      <stop
         style="stop-opacity:1;stop-color:#00a0ff"
         offset="0"
         id="stop90" />
      <stop
         style="stop-opacity:1;stop-color:#00a1ff"
         offset="0.0066"
         id="stop92" />
      <stop
         style="stop-opacity:1;stop-color:#00beff"
         offset="0.2601"
         id="stop94" />
      <stop
         style="stop-opacity:1;stop-color:#00d2ff"
         offset="0.5122"
         id="stop96" />
      <stop
         style="stop-opacity:1;stop-color:#00dfff"
         offset="0.7604"
         id="stop98" />
      <stop
         style="stop-opacity:1;stop-color:#00e3ff"
         offset="1"
         id="stop100" />
    </linearGradient>
    <linearGradient
       x1="0"
       y1="0"
       x2="1"
       y2="0"
       gradientUnits="userSpaceOnUse"
       gradientTransform="matrix(-85.995308,-7.4e-6,7.5e-6,-84.994774,301.33154,297.52002)"
       spreadMethod="pad"
       id="linearGradient126">
      <stop
         style="stop-opacity:1;stop-color:#ffe000"
         offset="0"
         id="stop118" />
      <stop
         style="stop-opacity:1;stop-color:#ffbd00"
         offset="0.4087"
         id="stop120" />
      <stop
         style="stop-opacity:1;stop-color:#ffa500"
         offset="0.7754"
         id="stop122" />
      <stop
         style="stop-opacity:1;stop-color:#ff9c00"
         offset="1"
         id="stop124" />
    </linearGradient>
    <linearGradient
       x1="0"
       y1="0"
       x2="1"
       y2="0"
       gradientUnits="userSpaceOnUse"
       gradientTransform="matrix(-80.862564,79.921753,-80.862564,-79.921753,239.66309,276.26855)"
       spreadMethod="pad"
       id="linearGradient146">
      <stop
         style="stop-opacity:1;stop-color:#ff3a44"
         offset="0"
         id="stop142" />
      <stop
         style="stop-opacity:1;stop-color:#c31162"
         offset="1"
         id="stop144" />
    </linearGradient>
    <linearGradient
       x1="0"
       y1="0"
       x2="1"
       y2="0"
       gradientUnits="userSpaceOnUse"
       gradientTransform="matrix(36.115265,35.694748,-36.114933,35.695072,177.36816,257.18848)"
       spreadMethod="pad"
       id="linearGradient172">
      <stop
         style="stop-opacity:1;stop-color:#32a071"
         offset="0"
         id="stop162" />
      <stop
         style="stop-opacity:1;stop-color:#2da771"
         offset="0.0685"
         id="stop164" />
      <stop
         style="stop-opacity:1;stop-color:#15cf74"
         offset="0.4762"
         id="stop166" />
      <stop
         style="stop-opacity:1;stop-color:#06e775"
         offset="0.8009"
         id="stop168" />
      <stop
         style="stop-opacity:1;stop-color:#00f076"
         offset="1"
         id="stop170" />
    </linearGradient>
    <clipPath
       clipPathUnits="userSpaceOnUse"
       id="clipPath182">
      <path
         d="M 0,595.275 H 841.89 V 0 H 0 Z"
         id="path180" />
    </clipPath>
    <clipPath
       clipPathUnits="userSpaceOnUse"
       id="clipPath190">
      <path
         d="M 145.541,402.9 H 696.413 V 192.138 H 145.541 Z"
         id="path188" />
    </clipPath>
    <clipPath
       clipPathUnits="userSpaceOnUse"
       id="clipPath194">
      <path
         d="M 145.541,402.9 H 696.413 V 192.138 H 145.541 Z"
         id="path192" />
    </clipPath>
    <clipPath
       clipPathUnits="userSpaceOnUse"
       id="clipPath198">
      <path
         d="M 180.269,368.885 H 619.916 V 198.699 H 180.269 Z"
         id="path196" />
    </clipPath>
    <mask
       maskUnits="userSpaceOnUse"
       x="0"
       y="0"
       width="1"
       height="1"
       id="mask200">
      <g
         id="g220">
        <g
           clip-path="url(#clipPath190)"
           id="g218">
          <path
             d="M 145.541,402.9 H 696.413 V 192.137 H 145.541 Z"
             style="fill:#000000;fill-opacity:1;fill-rule:nonzero;stroke:none"
             id="path202" />
          <g
             id="g216">
            <g
               id="g204" />
            <g
               id="g214">
              <g
                 clip-path="url(#clipPath194)"
                 id="g212">
                <g
                   id="g210">
                  <g
                     clip-path="url(#clipPath198)"
                     id="g208">
                    <path
                       d="M 180.269,368.885 H 619.916 V 198.699 H 180.269 Z"
                       style="fill:#000000;fill-opacity:0.199997;fill-rule:nonzero;stroke:none"
                       id="path206" />
                  </g>
                </g>
              </g>
            </g>
          </g>
        </g>
      </g>
    </mask>
    <clipPath
       clipPathUnits="userSpaceOnUse"
       id="clipPath228">
      <path
         d="M 145.541,402.9 H 696.413 V 192.138 H 145.541 Z"
         id="path226" />
    </clipPath>
    <clipPath
       clipPathUnits="userSpaceOnUse"
       id="clipPath232">
      <path
         d="M 145.541,192.138 H 696.413 V 402.901 H 145.541 Z"
         id="path230" />
    </clipPath>
    <clipPath
       clipPathUnits="userSpaceOnUse"
       id="clipPath236">
      <path
         d="M 0,0 H 124 V 48 H 0 Z"
         id="path234" />
    </clipPath>
    <pattern
       patternTransform="matrix(4.44254,0,0,-4.39085,25688.8,-32305.2)"
       patternUnits="userSpaceOnUse"
       x="0"
       y="0"
       width="124"
       height="48"
       id="pattern246">
      <g
         id="g244">
        <g
           clip-path="url(#clipPath236)"
           id="g242">
          <g
             transform="translate(29.625,20.6948)"
             id="g240">
            <path
               d="m 0,0 -11.613,-6.597 c -0.649,-0.371 -1.231,-0.344 -1.606,-0.008 l -0.058,-0.063 0.058,-0.058 c 0.375,-0.336 0.957,-0.36 1.606,0.011 L 0.074,-0.074 0,0 Z"
               style="fill:#000000;fill-opacity:1;fill-rule:nonzero;stroke:none"
               id="path238" />
          </g>
        </g>
      </g>
    </pattern>
    <clipPath
       clipPathUnits="userSpaceOnUse"
       id="clipPath264">
      <path
         d="M 145.541,402.9 H 696.413 V 192.138 H 145.541 Z"
         id="path262" />
    </clipPath>
    <clipPath
       clipPathUnits="userSpaceOnUse"
       id="clipPath268">
      <path
         d="M 145.541,402.9 H 696.413 V 192.138 H 145.541 Z"
         id="path266" />
    </clipPath>
    <clipPath
       clipPathUnits="userSpaceOnUse"
       id="clipPath272">
      <path
         d="M 180.269,368.885 H 619.916 V 198.699 H 180.269 Z"
         id="path270" />
    </clipPath>
    <mask
       maskUnits="userSpaceOnUse"
       x="0"
       y="0"
       width="1"
       height="1"
       id="mask274">
      <g
         id="g294">
        <g
           clip-path="url(#clipPath264)"
           id="g292">
          <path
             d="M 145.541,402.9 H 696.413 V 192.137 H 145.541 Z"
             style="fill:#000000;fill-opacity:1;fill-rule:nonzero;stroke:none"
             id="path276" />
          <g
             id="g290">
            <g
               id="g278" />
            <g
               id="g288">
              <g
                 clip-path="url(#clipPath268)"
                 id="g286">
                <g
                   id="g284">
                  <g
                     clip-path="url(#clipPath272)"
                     id="g282">
                    <path
                       d="M 180.269,368.885 H 619.916 V 198.699 H 180.269 Z"
                       style="fill:#000000;fill-opacity:0.119995;fill-rule:nonzero;stroke:none"
                       id="path280" />
                  </g>
                </g>
              </g>
            </g>
          </g>
        </g>
      </g>
    </mask>
    <clipPath
       clipPathUnits="userSpaceOnUse"
       id="clipPath302">
      <path
         d="M 145.541,402.9 H 696.413 V 192.138 H 145.541 Z"
         id="path300" />
    </clipPath>
    <clipPath
       clipPathUnits="userSpaceOnUse"
       id="clipPath306">
      <path
         d="M 145.541,192.138 H 696.413 V 402.901 H 145.541 Z"
         id="path304" />
    </clipPath>
    <clipPath
       clipPathUnits="userSpaceOnUse"
       id="clipPath310">
      <path
         d="M 0,0 H 124 V 48 H 0 Z"
         id="path308" />
    </clipPath>
    <pattern
       patternTransform="matrix(4.44254,0,0,-4.39085,25688.8,-32305.2)"
       patternUnits="userSpaceOnUse"
       x="0"
       y="0"
       width="124"
       height="48"
       id="pattern320">
      <g
         id="g318">
        <g
           clip-path="url(#clipPath310)"
           id="g316">
          <g
             transform="translate(16.3481,14.145)"
             id="g314">
            <path
               d="m 0,0 c -0.235,0.246 -0.371,0.628 -0.371,1.125 l 0,-0.118 C -0.371,0.511 -0.235,0.128 0,-0.118 L 0.058,-0.055 0,0 Z"
               style="fill:#000000;fill-opacity:1;fill-rule:nonzero;stroke:none"
               id="path312" />
          </g>
        </g>
      </g>
    </pattern>
    <clipPath
       clipPathUnits="userSpaceOnUse"
       id="clipPath338">
      <path
         d="M 145.541,402.9 H 696.413 V 192.138 H 145.541 Z"
         id="path336" />
    </clipPath>
    <clipPath
       clipPathUnits="userSpaceOnUse"
       id="clipPath342">
      <path
         d="M 145.541,402.9 H 696.413 V 192.138 H 145.541 Z"
         id="path340" />
    </clipPath>
    <clipPath
       clipPathUnits="userSpaceOnUse"
       id="clipPath346">
      <path
         d="M 180.269,368.885 H 619.916 V 198.699 H 180.269 Z"
         id="path344" />
    </clipPath>
    <mask
       maskUnits="userSpaceOnUse"
       x="0"
       y="0"
       width="1"
       height="1"
       id="mask348">
      <g
         id="g368">
        <g
           clip-path="url(#clipPath338)"
           id="g366">
          <path
             d="M 145.541,402.9 H 696.413 V 192.137 H 145.541 Z"
             style="fill:#000000;fill-opacity:1;fill-rule:nonzero;stroke:none"
             id="path350" />
          <g
             id="g364">
            <g
               id="g352" />
            <g
               id="g362">
              <g
                 clip-path="url(#clipPath342)"
                 id="g360">
                <g
                   id="g358">
                  <g
                     clip-path="url(#clipPath346)"
                     id="g356">
                    <path
                       d="M 180.269,368.885 H 619.916 V 198.699 H 180.269 Z"
                       style="fill:#000000;fill-opacity:0.119995;fill-rule:nonzero;stroke:none"
                       id="path354" />
                  </g>
                </g>
              </g>
            </g>
          </g>
        </g>
      </g>
    </mask>
    <clipPath
       clipPathUnits="userSpaceOnUse"
       id="clipPath376">
      <path
         d="M 145.541,402.9 H 696.413 V 192.138 H 145.541 Z"
         id="path374" />
    </clipPath>
    <clipPath
       clipPathUnits="userSpaceOnUse"
       id="clipPath380">
      <path
         d="M 145.541,192.138 H 696.413 V 402.901 H 145.541 Z"
         id="path378" />
    </clipPath>
    <clipPath
       clipPathUnits="userSpaceOnUse"
       id="clipPath384">
      <path
         d="M 0,0 H 124 V 48 H 0 Z"
         id="path382" />
    </clipPath>
    <pattern
       patternTransform="matrix(4.44254,0,0,-4.39085,25688.8,-32305.2)"
       patternUnits="userSpaceOnUse"
       x="0"
       y="0"
       width="124"
       height="48"
       id="pattern394">
      <g
         id="g392">
        <g
           clip-path="url(#clipPath384)"
           id="g390">
          <g
             transform="translate(33.6128,22.9609)"
             id="g388">
            <path
               d="M 0,0 -3.988,-2.266 -3.914,-2.34 0,-0.117 C 0.559,0.199 0.836,0.617 0.836,1.039 0.789,0.66 0.504,0.289 0,0"
               style="fill:#000000;fill-opacity:1;fill-rule:nonzero;stroke:none"
               id="path386" />
          </g>
        </g>
      </g>
    </pattern>
    <clipPath
       clipPathUnits="userSpaceOnUse"
       id="clipPath412">
      <path
         d="M 145.541,402.9 H 696.413 V 192.138 H 145.541 Z"
         id="path410" />
    </clipPath>
    <clipPath
       clipPathUnits="userSpaceOnUse"
       id="clipPath416">
      <path
         d="M 145.541,402.9 H 696.413 V 192.138 H 145.541 Z"
         id="path414" />
    </clipPath>
    <clipPath
       clipPathUnits="userSpaceOnUse"
       id="clipPath420">
      <path
         d="M 180.269,368.885 H 619.916 V 198.699 H 180.269 Z"
         id="path418" />
    </clipPath>
    <mask
       maskUnits="userSpaceOnUse"
       x="0"
       y="0"
       width="1"
       height="1"
       id="mask422">
      <g
         id="g442">
        <g
           clip-path="url(#clipPath412)"
           id="g440">
          <path
             d="M 145.541,402.9 H 696.413 V 192.137 H 145.541 Z"
             style="fill:#000000;fill-opacity:1;fill-rule:nonzero;stroke:none"
             id="path424" />
          <g
             id="g438">
            <g
               id="g426" />
            <g
               id="g436">
              <g
                 clip-path="url(#clipPath416)"
                 id="g434">
                <g
                   id="g432">
                  <g
                     clip-path="url(#clipPath420)"
                     id="g430">
                    <path
                       d="M 180.269,368.885 H 619.916 V 198.699 H 180.269 Z"
                       style="fill:#000000;fill-opacity:0.25;fill-rule:nonzero;stroke:none"
                       id="path428" />
                  </g>
                </g>
              </g>
            </g>
          </g>
        </g>
      </g>
    </mask>
    <clipPath
       clipPathUnits="userSpaceOnUse"
       id="clipPath450">
      <path
         d="M 145.541,402.9 H 696.413 V 192.138 H 145.541 Z"
         id="path448" />
    </clipPath>
  </defs>
  <sodipodi:namedview
     id="namedview4"
     pagecolor="#ffffff"
     bordercolor="#000000"
     borderopacity="0.25"
     inkscape:showpageshadow="2"
     inkscape:pageopacity="0.0"
     inkscape:pagecheckerboard="0"
     inkscape:deskcolor="#d1d1d1" />
  <g
     id="g8"
     inkscape:groupmode="layer"
     inkscape:label="get-it-on-google-play-2016-seeklogo.com"
     transform="matrix(1.3333333,0,0,-1.3333333,0,793.7)">
    <g
       id="g10">
      <g
         id="g12"
         clip-path="url(#clipPath16)">
        <g
           id="g18"
           transform="translate(643.105,227.2646)">
          <path
             d="m 0,0 h -444.257 c -9.767,0 -17.769,7.908 -17.769,17.564 v 105.38 c 0,9.657 8.002,17.565 17.769,17.565 H 0 c 9.768,0 17.77,-7.908 17.77,-17.565 V 17.564 C 17.77,7.908 9.768,0 0,0"
             style="fill:#000000;fill-opacity:1;fill-rule:nonzero;stroke:none"
             id="path20" />
        </g>
        <g
           id="g22"
           transform="translate(643.105,367.7739)">
          <path
             d="m 0,0 h -444.257 c -9.767,0 -17.769,-7.908 -17.769,-17.565 v -105.38 c 0,-9.656 8.002,-17.564 17.769,-17.564 H 0 c 9.768,0 17.77,7.908 17.77,17.564 v 105.38 C 17.77,-7.908 9.768,0 0,0 m 0,-2.815 c 8.227,0 14.92,-6.617 14.92,-14.75 v -105.38 c 0,-8.133 -6.693,-14.75 -14.92,-14.75 h -444.257 c -8.226,0 -14.919,6.617 -14.919,14.75 v 105.38 c 0,8.133 6.693,14.75 14.919,14.75 L 0,-2.815"
             style="fill:#a6a6a6;fill-opacity:1;fill-rule:nonzero;stroke:none"
             id="path24" />
        </g>
        <g
           id="g26"
           transform="translate(349.6035,331.7886)">
          <path
             d="m 0,0 c 0,-2.933 -0.89,-5.28 -2.638,-7.032 -2.016,-2.078 -4.637,-3.123 -7.846,-3.123 -3.072,0 -5.693,1.063 -7.843,3.157 -2.153,2.126 -3.23,4.734 -3.23,7.853 0,3.124 1.077,5.73 3.23,7.839 2.15,2.112 4.771,3.175 7.843,3.175 1.526,0 2.984,-0.311 4.376,-0.893 1.385,-0.582 2.514,-1.371 3.331,-2.348 L -4.633,6.776 c -1.426,1.665 -3.369,2.486 -5.851,2.486 -2.241,0 -4.183,-0.776 -5.831,-2.334 -1.631,-1.561 -2.448,-3.587 -2.448,-6.073 0,-2.482 0.817,-4.525 2.448,-6.087 1.648,-1.544 3.59,-2.333 5.831,-2.333 2.375,0 4.376,0.789 5.952,2.351 1.038,1.031 1.63,2.455 1.786,4.272 h -7.738 V 1.593 H -0.159 C -0.038,1.045 0,0.516 0,0"
             style="fill:#ffffff;fill-opacity:1;fill-rule:nonzero;stroke:none"
             id="path28" />
        </g>
        <g
           id="g30"
           transform="translate(349.6035,331.7886)">
          <path
             d="m 0,0 c 0,-2.933 -0.89,-5.28 -2.638,-7.032 -2.016,-2.078 -4.637,-3.123 -7.846,-3.123 -3.072,0 -5.693,1.063 -7.843,3.157 -2.153,2.126 -3.23,4.734 -3.23,7.853 0,3.124 1.077,5.73 3.23,7.839 2.15,2.112 4.771,3.175 7.843,3.175 1.526,0 2.984,-0.311 4.376,-0.893 1.385,-0.582 2.514,-1.371 3.331,-2.348 L -4.633,6.776 c -1.426,1.665 -3.369,2.486 -5.851,2.486 -2.241,0 -4.183,-0.776 -5.831,-2.334 -1.631,-1.561 -2.448,-3.587 -2.448,-6.073 0,-2.482 0.817,-4.525 2.448,-6.087 1.648,-1.544 3.59,-2.333 5.831,-2.333 2.375,0 4.376,0.789 5.952,2.351 1.038,1.031 1.63,2.455 1.786,4.272 h -7.738 V 1.593 H -0.159 C -0.038,1.045 0,0.516 0,0 Z"
             style="fill:none;stroke:#ffffff;stroke-width:0.16;stroke-linecap:butt;stroke-linejoin:miter;stroke-miterlimit:10;stroke-dasharray:none;stroke-opacity:1"
             id="path32" />
        </g>
        <g
           id="g34"
           transform="translate(365.981,340.5903)">
          <path
             d="m 0,0 h -9.698 v -6.676 h 8.746 v -2.538 h -8.746 v -6.675 H 0 v -2.587 H -12.44 V 2.583 l 12.44,0 z"
             style="fill:#ffffff;fill-opacity:1;fill-rule:nonzero;stroke:none"
             id="path36" />
        </g>
        <g
           id="g38"
           transform="translate(365.981,340.5903)">
          <path
             d="m 0,0 h -9.698 v -6.676 h 8.746 v -2.538 h -8.746 v -6.675 H 0 v -2.587 H -12.44 V 2.583 l 12.44,0 z"
             style="fill:none;stroke:#ffffff;stroke-width:0.16;stroke-linecap:butt;stroke-linejoin:miter;stroke-miterlimit:10;stroke-dasharray:none;stroke-opacity:1"
             id="path40" />
        </g>
        <g
           id="g42"
           transform="translate(377.542,322.1143)">
          <path
             d="m 0,0 h -2.746 v 18.476 h -5.948 v 2.583 H 5.952 V 18.476 H 0 Z"
             style="fill:#ffffff;fill-opacity:1;fill-rule:nonzero;stroke:none"
             id="path44" />
        </g>
        <g
           id="g46"
           transform="translate(377.542,322.1143)">
          <path
             d="m 0,0 h -2.746 v 18.476 h -5.948 v 2.583 H 5.952 V 18.476 H 0 Z"
             style="fill:none;stroke:#ffffff;stroke-width:0.16;stroke-linecap:butt;stroke-linejoin:miter;stroke-miterlimit:10;stroke-dasharray:none;stroke-opacity:1"
             id="path48" />
        </g>
        <path
           d="m 394.096,343.173 h 2.738 v -21.059 h -2.738 z"
           style="fill:#ffffff;fill-opacity:1;fill-rule:nonzero;stroke:#ffffff;stroke-width:0.16;stroke-linecap:butt;stroke-linejoin:miter;stroke-miterlimit:10;stroke-dasharray:none;stroke-opacity:1"
           id="path50" />
        <g
           id="g52"
           transform="translate(408.9844,322.1143)">
          <path
             d="m 0,0 h -2.721 v 18.476 h -5.973 v 2.583 H 5.973 V 18.476 H 0 Z"
             style="fill:#ffffff;fill-opacity:1;fill-rule:nonzero;stroke:none"
             id="path54" />
        </g>
        <g
           id="g56"
           transform="translate(408.9844,322.1143)">
          <path
             d="m 0,0 h -2.721 v 18.476 h -5.973 v 2.583 H 5.973 V 18.476 H 0 Z"
             style="fill:none;stroke:#ffffff;stroke-width:0.16;stroke-linecap:butt;stroke-linejoin:miter;stroke-miterlimit:10;stroke-dasharray:none;stroke-opacity:1"
             id="path58" />
        </g>
        <g
           id="g60"
           transform="translate(429.0806,326.5913)">
          <path
             d="m 0,0 c 1.582,-1.579 3.504,-2.368 5.796,-2.368 2.275,0 4.218,0.789 5.779,2.368 1.578,1.576 2.379,3.601 2.379,6.052 0,2.455 -0.801,4.481 -2.379,6.056 -1.561,1.576 -3.504,2.369 -5.779,2.369 C 3.504,14.477 1.582,13.684 0,12.108 -1.579,10.533 -2.379,8.507 -2.379,6.052 -2.379,3.601 -1.579,1.576 0,0 m 13.607,-1.766 c -2.101,-2.129 -4.706,-3.192 -7.811,-3.192 -3.123,0 -5.727,1.063 -7.828,3.192 -2.095,2.126 -3.141,4.733 -3.141,7.818 0,3.089 1.046,5.697 3.141,7.823 2.101,2.128 4.705,3.191 7.828,3.191 3.089,0 5.692,-1.063 7.794,-3.209 2.112,-2.144 3.158,-4.733 3.158,-7.805 0,-3.085 -1.046,-5.692 -3.141,-7.818"
             style="fill:#ffffff;fill-opacity:1;fill-rule:nonzero;stroke:none"
             id="path62" />
        </g>
        <g
           id="g64"
           transform="translate(429.0806,326.5913)">
          <path
             d="m 0,0 c 1.582,-1.579 3.504,-2.368 5.796,-2.368 2.275,0 4.218,0.789 5.779,2.368 1.578,1.576 2.379,3.601 2.379,6.052 0,2.455 -0.801,4.481 -2.379,6.056 -1.561,1.576 -3.504,2.369 -5.779,2.369 C 3.504,14.477 1.582,13.684 0,12.108 -1.579,10.533 -2.379,8.507 -2.379,6.052 -2.379,3.601 -1.579,1.576 0,0 Z m 13.607,-1.766 c -2.101,-2.129 -4.706,-3.192 -7.811,-3.192 -3.123,0 -5.727,1.063 -7.828,3.192 -2.095,2.126 -3.141,4.733 -3.141,7.818 0,3.089 1.046,5.697 3.141,7.823 2.101,2.128 4.705,3.191 7.828,3.191 3.089,0 5.692,-1.063 7.794,-3.209 2.112,-2.144 3.158,-4.733 3.158,-7.805 0,-3.085 -1.046,-5.692 -3.141,-7.818 z"
             style="fill:none;stroke:#ffffff;stroke-width:0.16;stroke-linecap:butt;stroke-linejoin:miter;stroke-miterlimit:10;stroke-dasharray:none;stroke-opacity:1"
             id="path66" />
        </g>
        <g
           id="g68"
           transform="translate(449.6792,322.1143)">
          <path
             d="M 0,0 V 21.059 H 3.334 L 13.693,4.682 h 0.118 l -0.118,4.05 v 12.327 h 2.739 V 0 h -2.86 L 2.725,17.188 H 2.604 L 2.725,13.123 V 0 Z"
             style="fill:#ffffff;fill-opacity:1;fill-rule:nonzero;stroke:none"
             id="path70" />
        </g>
        <g
           id="g72"
           transform="translate(449.6792,322.1143)">
          <path
             d="M 0,0 V 21.059 H 3.334 L 13.693,4.682 h 0.118 l -0.118,4.05 v 12.327 h 2.739 V 0 h -2.86 L 2.725,17.188 H 2.604 L 2.725,13.123 V 0 Z"
             style="fill:none;stroke:#ffffff;stroke-width:0.16;stroke-linecap:butt;stroke-linejoin:miter;stroke-miterlimit:10;stroke-dasharray:none;stroke-opacity:1"
             id="path74" />
        </g>
        <path
           d="m 561.125,262.391 h 6.647 v 43.911 h -6.647 z m 59.748,28.094 -7.618,-19.037 h -0.228 l -7.877,19.037 h -7.147 l 11.834,-26.602 -6.752,-14.798 h 6.926 l 18.237,41.4 z M 583.25,267.384 c -2.168,0 -5.191,1.062 -5.191,3.719 0,3.4 3.768,4.702 7.029,4.702 2.919,0 4.287,-0.634 6.059,-1.476 -0.519,-4.064 -4.062,-6.945 -7.897,-6.945 m 0.799,24.063 c -4.788,0 -9.77,-2.091 -11.817,-6.723 l 5.883,-2.438 c 1.263,2.438 3.593,3.227 6.052,3.227 3.442,0 6.928,-2.039 6.98,-5.647 v -0.461 c -1.198,0.686 -3.767,1.7 -6.925,1.7 -6.336,0 -12.79,-3.445 -12.79,-9.878 0,-5.886 5.191,-9.674 11.021,-9.674 4.46,0 6.922,1.991 8.469,4.303 h 0.225 v -3.392 h 6.402 v 16.841 c 0,7.787 -5.882,12.142 -13.5,12.142 m -40.974,-6.311 h -9.439 v 15.058 h 9.439 c 4.948,0 7.773,-4.062 7.773,-7.528 0,-3.396 -2.825,-7.53 -7.773,-7.53 m -0.173,21.166 h -15.897 v -43.911 h 6.631 v 16.637 h 9.266 c 7.361,0 14.58,5.266 14.58,13.638 0,8.369 -7.236,13.636 -14.58,13.636 m -86.649,-38.936 c -4.58,0 -8.413,3.788 -8.413,9.006 0,5.267 3.833,9.107 8.413,9.107 4.516,0 8.075,-3.84 8.075,-9.107 0,-5.218 -3.559,-9.006 -8.075,-9.006 m 7.604,20.668 h -0.225 c -1.492,1.748 -4.338,3.327 -7.946,3.327 -7.569,0 -14.49,-6.568 -14.49,-14.989 0,-8.372 6.921,-14.889 14.49,-14.889 3.608,0 6.454,1.593 7.946,3.394 h 0.225 v -2.144 c 0,-5.712 -3.088,-8.78 -8.067,-8.78 -4.062,0 -6.582,2.898 -7.621,5.335 l -5.779,-2.385 c 1.666,-3.962 6.076,-8.833 13.4,-8.833 7.791,0 14.366,4.529 14.366,15.557 v 26.827 h -6.299 z m 10.883,-25.643 h 6.648 v 43.911 h -6.648 z m 16.432,14.494 c -0.172,5.761 4.53,8.711 7.895,8.711 2.639,0 4.879,-1.302 5.623,-3.168 z m 20.617,4.975 c -1.25,3.341 -5.101,9.501 -12.948,9.501 -7.776,0 -14.247,-6.052 -14.247,-14.94 0,-8.369 6.406,-14.938 14.992,-14.938 6.946,0 10.953,4.183 12.6,6.621 l -5.151,3.393 c -1.722,-2.482 -4.063,-4.131 -7.449,-4.131 -3.362,0 -5.775,1.524 -7.319,4.53 l 20.217,8.264 -0.699,1.7 z m -161.026,4.924 v -6.35 h 15.339 c -0.45,-3.549 -1.648,-6.157 -3.487,-7.974 -2.24,-2.195 -5.727,-4.633 -11.852,-4.633 -9.442,0 -16.834,7.53 -16.834,16.861 0,9.333 7.392,16.863 16.834,16.863 5.104,0 8.82,-1.973 11.558,-4.529 l 4.529,4.474 c -3.837,3.618 -8.936,6.399 -16.087,6.399 -12.946,0 -23.825,-10.413 -23.825,-23.207 0,-12.792 10.879,-23.205 23.825,-23.205 6.994,0 12.25,2.265 16.385,6.517 4.231,4.183 5.55,10.068 5.55,14.819 0,1.475 -0.125,2.832 -0.346,3.965 z m 39.379,-19.418 c -4.584,0 -8.538,3.737 -8.538,9.055 0,5.388 3.954,9.058 8.538,9.058 4.581,0 8.521,-3.67 8.521,-9.058 0,-5.318 -3.94,-9.055 -8.521,-9.055 m 0,23.995 c -8.365,0 -15.169,-6.277 -15.169,-14.94 0,-8.594 6.804,-14.938 15.169,-14.938 8.358,0 15.165,6.344 15.165,14.938 0,8.663 -6.807,14.94 -15.165,14.94 m 33.09,-23.995 c -4.58,0 -8.521,3.737 -8.521,9.055 0,5.388 3.941,9.058 8.521,9.058 4.581,0 8.539,-3.67 8.539,-9.058 0,-5.318 -3.958,-9.055 -8.539,-9.055 m 0,23.995 c -8.348,0 -15.165,-6.277 -15.165,-14.94 0,-8.594 6.817,-14.938 15.165,-14.938 8.365,0 15.186,6.344 15.186,14.938 0,8.663 -6.821,14.94 -15.186,14.94"
           style="fill:#ffffff;fill-opacity:1;fill-rule:nonzero;stroke:none"
           id="path76" />
      </g>
    </g>
    <g
       id="g78">
      <g
         id="g80">
        <g
           id="g86">
          <g
             id="g88">
            <path
               d="m 218.165,341.29 c -1.042,-1.08 -1.647,-2.76 -1.647,-4.938 v 0 -77.683 c 0,-2.178 0.605,-3.861 1.647,-4.942 v 0 l 0.26,-0.235 44.042,43.512 v 1.029 l -44.042,43.513 z"
               style="fill:url(#linearGradient102);stroke:none"
               id="path104" />
          </g>
        </g>
      </g>
    </g>
    <g
       id="g106">
      <g
         id="g108">
        <g
           id="g114">
          <g
             id="g116">
            <path
               d="m 262.467,298.033 v -1.029 l 14.664,-14.51 0.346,0.187 17.389,9.76 c 4.961,2.794 4.961,7.362 0,10.135 v 0 l -17.389,9.778 -0.328,0.191 z"
               style="fill:url(#linearGradient126);stroke:none"
               id="path128" />
          </g>
        </g>
      </g>
    </g>
    <g
       id="g130">
      <g
         id="g132">
        <g
           id="g138">
          <g
             id="g140">
            <path
               d="m 218.165,253.727 c 1.648,-1.709 4.336,-1.918 7.393,-0.203 v 0 l 51.919,29.157 -15.01,14.836 z"
               style="fill:url(#linearGradient146);stroke:none"
               id="path148" />
          </g>
        </g>
      </g>
    </g>
    <g
       id="g150">
      <g
         id="g152">
        <g
           id="g158">
          <g
             id="g160">
            <path
               d="m 218.165,341.29 44.302,-43.773 15.01,14.837 -51.919,29.161 c -1.432,0.794 -2.783,1.171 -3.984,1.171 v 0 c -1.363,0 -2.533,-0.485 -3.409,-1.396"
               style="fill:url(#linearGradient172);stroke:none"
               id="path174" />
          </g>
        </g>
      </g>
    </g>
    <g
       id="g176">
      <g
         id="g178"
         clip-path="url(#clipPath182)">
        <g
           id="g184">
          <g
             id="g186" />
          <g
             id="g222"
             mask="url(#mask200)">
            <g
               id="g224" />
            <g
               id="g256">
              <g
                 clip-path="url(#clipPath228)"
                 id="g254">
                <g
                   id="g252">
                  <g
                     clip-path="url(#clipPath232)"
                     id="g250">
                    <path
                       d="M 145.541,192.138 H 696.413 V 402.901 H 145.541 Z"
                       style="fill:url(#pattern246);fill-opacity:1;fill-rule:nonzero;stroke:none"
                       id="path248" />
                  </g>
                </g>
              </g>
            </g>
          </g>
        </g>
        <g
           id="g258">
          <g
             id="g260" />
          <g
             id="g296"
             mask="url(#mask274)">
            <g
               id="g298" />
            <g
               id="g330">
              <g
                 clip-path="url(#clipPath302)"
                 id="g328">
                <g
                   id="g326">
                  <g
                     clip-path="url(#clipPath306)"
                     id="g324">
                    <path
                       d="M 145.541,192.138 H 696.413 V 402.901 H 145.541 Z"
                       style="fill:url(#pattern320);fill-opacity:1;fill-rule:nonzero;stroke:none"
                       id="path322" />
                  </g>
                </g>
              </g>
            </g>
          </g>
        </g>
        <g
           id="g332">
          <g
             id="g334" />
          <g
             id="g370"
             mask="url(#mask348)">
            <g
               id="g372" />
            <g
               id="g404">
              <g
                 clip-path="url(#clipPath376)"
                 id="g402">
                <g
                   id="g400">
                  <g
                     clip-path="url(#clipPath380)"
                     id="g398">
                    <path
                       d="M 145.541,192.138 H 696.413 V 402.901 H 145.541 Z"
                       style="fill:url(#pattern394);fill-opacity:1;fill-rule:nonzero;stroke:none"
                       id="path396" />
                  </g>
                </g>
              </g>
            </g>
          </g>
        </g>
        <g
           id="g406">
          <g
             id="g408" />
          <g
             id="g444"
             mask="url(#mask422)">
            <g
               id="g446" />
            <g
               id="g454">
              <g
                 clip-path="url(#clipPath450)"
                 id="g452" />
            </g>
          </g>
        </g>
      </g>
    </g>
  </g>
</svg>
